<?xml version="1.0" encoding="utf-8"?>
<!-- Generator: Adobe Illustrator 16.0.4, SVG Export Plug-In . SVG Version: 6.00 Build 0)  -->
<!DOCTYPE svg PUBLIC "-//W3C//DTD SVG 1.1//EN" "http://www.w3.org/Graphics/SVG/1.1/DTD/svg11.dtd">
<svg version="1.1" xmlns="http://www.w3.org/2000/svg" xmlns:xlink="http://www.w3.org/1999/xlink" x="0px" y="0px" width="772px"
	 height="475px" viewBox="0 0 772 475" enable-background="new 0 0 772 475" xml:space="preserve">
<g id="graph">

		<line fill-rule="evenodd" clip-rule="evenodd" fill="none" stroke="#000000" stroke-width="3" stroke-miterlimit="10" x1="181.634" y1="448.953" x2="557.177" y2="112.109">

		<line fill-rule="evenodd" clip-rule="evenodd" fill="none" stroke="#000000" stroke-width="3" stroke-miterlimit="10" x1="224.913" y1="390.651" x2="245.185" y2="419.135">

		<line fill-rule="evenodd" clip-rule="evenodd" fill="none" stroke="#000000" stroke-width="3" stroke-miterlimit="10" x1="349.19" y1="277.24" x2="369.462" y2="305.724">

		<line fill-rule="evenodd" clip-rule="evenodd" fill="none" stroke="#000000" stroke-width="3" stroke-miterlimit="10" x1="462.727" y1="172.143" x2="482.998" y2="200.626">

		<line fill-rule="evenodd" clip-rule="evenodd" fill="none" stroke="#555660" stroke-width="3" stroke-miterlimit="10" x1="146.665" y1="130.703" x2="296.677" y2="348.868">

		<line fill-rule="evenodd" clip-rule="evenodd" fill="none" stroke="#555660" stroke-width="3" stroke-miterlimit="10" x1="354.354" y1="108.245" x2="429.361" y2="226.753">
	<circle fill-rule="evenodd" clip-rule="evenodd" fill="#555660" cx="295.677" cy="346.443" r="8.611">
	<circle fill-rule="evenodd" clip-rule="evenodd" fill="#555660" cx="429.361" cy="226.754" r="8.611">
</g>
<g id="triangle_bleu">
	<polygon fill-rule="evenodd" clip-rule="evenodd" fill="none" stroke="#6A6D93" stroke-width="3" stroke-miterlimit="10" points="
		297.949,436.247 713.623,47.765 41,58.537 	">
</g>
<g id="triangle_rouge">
	<polygon fill-rule="evenodd" clip-rule="evenodd" fill="none" stroke="#FF0000" stroke-width="3" stroke-miterlimit="10" points="
		236.799,64.149 411.042,305.171 687.438,57.388 	">
</g>
<g id="triangle_vert">
	<polygon fill-rule="evenodd" clip-rule="evenodd" fill="none" stroke="#687C51" stroke-width="3" stroke-miterlimit="10" points="
		433.489,68.729 524.895,190.443 667.496,63.332 	">
</g>
<g id="Textes">
	<text transform="matrix(1 0 0 1 112.3335 120.7012)" font-size="15">Bactéries</text>
	<text transform="matrix(1 0 0 1 296.6772 83.7007)"><tspan x="0" y="0" font-size="15">Hommes,</tspan><tspan x="0" y="18" font-size="15">levures</tspan></text>
	<text transform="matrix(1 0 0 1 517.5449 86.3677)"><tspan x="0" y="0" font-size="15">Élodée, </tspan><tspan x="0" y="18" font-size="15">chêne vert</tspan></text>
</g>
</svg>
