<?xml version="1.0" encoding="utf-8"?>
<!-- Generator: Adobe Illustrator 16.0.4, SVG Export Plug-In . SVG Version: 6.00 Build 0)  -->
<!DOCTYPE svg PUBLIC "-//W3C//DTD SVG 1.1//EN" "http://www.w3.org/Graphics/SVG/1.1/DTD/svg11.dtd">
<svg version="1.1" xmlns="http://www.w3.org/2000/svg" xmlns:xlink="http://www.w3.org/1999/xlink" x="0px" y="0px" width="508px"
	 height="365px" viewBox="0 0 508 365" enable-background="new 0 0 508 365" xml:space="preserve">
<g id="Cellule">
	<path fill="#73673B" stroke="#000000" stroke-miterlimit="10" d="M480.773,52.187C474.868,22.867,441.78,21.621,416,21
		c-43.208-1.04-154.151,9.376-197.292,11.189C148.733,35.129,148.974,33.646,79,37c-16.561,2.69-33.398,0.577-41.152,18.8
		C28.929,76.76,37.283,116.876,38,139c1.408,43.456-35.599,80.207-14.095,118.367C53,309,150.026,302.943,198.707,304.819
		c75.375,2.906,157.497,6.901,231.106-11.896C490.15,277.517,479.905,211.527,478,160C476.562,121.115,490,98,480.773,52.187z
		 M463.564,160.629c1.798,47.262,11.467,107.792-45.473,121.922c-69.466,17.241-146.964,13.578-218.094,10.911
		c-45.94-1.721-137.503,3.834-164.96-43.524c-20.293-35.002,14.63-68.712,13.301-108.571c-0.676-20.292-8.56-57.088-0.143-76.313
		c7.317-16.715,23.207-14.777,38.835-17.245c66.034-3.076,65.807-1.716,131.842-4.413c40.712-1.663,145.408-11.217,186.184-10.264
		c24.328,0.57,55.553,1.713,61.126,28.606C474.889,103.761,462.207,124.963,463.564,160.629z">
	<path fill="none" stroke="#000000" stroke-width="2" stroke-miterlimit="10" d="M108,126c25.775-5.155,54.744-7.391,80.928-9.029
		c34.374-2.151,54.8,27.577,87.808,31.529c54.785,6.559,110.118,9.762,165.265,7.5c6.409,33.818,26.359,100.65-16.246,120.134
		c-21.501,9.832-53.002,0.818-75.816,2.548c-39.192,2.972-75.462,7.629-114.994,6.502c-28.754-0.819-55.36-10.229-84.052-9.848
		c-24.985,0.331-68.224-6.004-82.224-30.67C49.738,211.315,59.192,145,108,126z">
	<path fill="#757575" stroke="#000000" stroke-miterlimit="10" d="M276,125c7.231,1.104,20.592,3.326,8.052,11.052
		C273.521,142.539,263.862,127.75,276,125">
	<path fill="#757575" stroke="#000000" stroke-miterlimit="10" d="M265.881,62.124c29.891-1.669,4.255,25.015-15.707,12.702
		C249.28,68.625,261.062,63.473,265.881,62.124z">
	<path fill="#757575" stroke="#000000" stroke-miterlimit="10" d="M117,74c6.947-0.82,25.467-3.116,16.997,8.829
		c-4.67,6.585-20.826,8.054-27.845,7.066C103.121,79.377,110.469,78.301,117,74L117,74z">
	<path fill="#73673B" stroke="#000000" stroke-miterlimit="10" d="M447,125c-4.718,4.173-10.819,19.795,3.028,16.271
		c8.603-2.189,11.722-17.187,0.972-18.271C451,123,447.838,124.259,447,125z">
	<path fill="#73673B" stroke="#000000" stroke-width="2" stroke-miterlimit="10" d="M341.019,75.631
		c-8.929,5.228-7.778,7.205-12.289,16.369c-5.081,10.322-8.495,24.2-1.05,33.977c17.496,22.974,52.356,25.669,77.788,16.601
		c21.104-7.525,34.57-35.42,34.532-56.578c-0.042-23.418-10.759-26.703-28.333-25.333c-7.703,0.6-22.719,0.623-30.081,1.381
		c-7.234,0.746-9.976,3.702-23.848,4.952C350.334,67.667,343.622,74.107,341.019,75.631z">
</g>
<g id="verts">
	<path fill="#699371" stroke="#2C5924" stroke-miterlimit="10" d="M173.42,66.773c-4.58,4.773-11.28,10.878-7.69,18.45
		c5.947,12.543,21.298-0.945,27.997-5.497C200.063,75.42,215.87,65.238,207.829,55c-5.666-7.214-20.02,0.224-25.829,5
		C181.136,60.71,173.42,66.773,173.42,66.773z">
	<path fill="#699371" stroke="#2C5924" stroke-miterlimit="10" d="M66.804,73.992c-4.196,8.992-3.966,14.816-0.604,27.058
		c4.811,17.519,16.793,9.155,22.778-1.952c3.694-6.856,2.788-14.011,7.119-19.772c3.806-5.063,11.626-6.06,14.701-12.377
		C119.832,48.384,84.922,54.056,76,62C74.911,62.969,67.42,72.671,66.804,73.992z">
	<path fill="#699371" stroke="#2C5924" stroke-miterlimit="10" d="M48.965,212.129c17.929,9.54,16.046,63.776-4.013,48.605
		C31.241,250.364,21.72,209.256,48.965,212.129z">
	<path fill="#699371" stroke="#2C5924" stroke-miterlimit="10" d="M256.013,91.667c16.561-0.096,58.646-25.384,61.859-8.464
		c5.305,27.939-33.447,36.488-56.917,33.016C236.135,112.55,235.777,92.999,256.013,91.667z">
	<path fill="#699371" stroke="#2C5924" stroke-miterlimit="10" d="M365,58c-16-3.468-4.666-20.667,25.203-17.777
		c11.338,1.097,37.352-5.474,45.271,6.204C446.807,63.137,368.662,58.431,365,58z">
</g>
<g id="echelle">
	<line fill="none" stroke="#000000" stroke-width="3" stroke-miterlimit="10" x1="33" y1="328" x2="33" y2="309">
	<line fill="none" stroke="#000000" stroke-width="3" stroke-miterlimit="10" x1="95" y1="328" x2="95" y2="309">
	<path fill="none" stroke="#000000" stroke-width="3" stroke-miterlimit="10" d="M33,318h62H33z">
	<text transform="matrix(1 0 0 1 38 342)" font-size="18">10 µm</text>
</g>
</svg>
