<?xml version="1.0" encoding="utf-8"?>
<!-- Generator: Adobe Illustrator 16.0.4, SVG Export Plug-In . SVG Version: 6.00 Build 0)  -->
<!DOCTYPE svg PUBLIC "-//W3C//DTD SVG 1.1//EN" "http://www.w3.org/Graphics/SVG/1.1/DTD/svg11.dtd">
<svg version="1.1" id="Calque_2" xmlns="http://www.w3.org/2000/svg" xmlns:xlink="http://www.w3.org/1999/xlink" x="0px" y="0px"
	 width="528px" height="448px" viewBox="0 0 528 448" enable-background="new 0 0 528 448" xml:space="preserve">
<line fill="none" stroke="#000000" stroke-width="3" stroke-miterlimit="10" x1="35" y1="395" x2="35" y2="376">
<line fill="none" stroke="#000000" stroke-width="3" stroke-miterlimit="10" x1="107" y1="394" x2="107" y2="375">
<path fill="none" stroke="#000000" stroke-width="3" stroke-miterlimit="10" d="M35,385h72H35z">
<text transform="matrix(1 0 0 1 49 409)" font-size="18">2 µm</text>
<path fill="none" stroke="#000000" stroke-width="4" stroke-miterlimit="10" d="M119.786,207.005
	c9.706-23.917,26.045-46.393,33.185-59.337C164.817,126.188,215.281,95.527,234,81c37.262-28.917,17-52.529,63.212-52
	c27.908,0.32,42.139,19.449,57.913,36.973c15.021,16.687,40.524,17.218,60.942,21.065c49.911,9.405,62.173,79.342,62.696,120.414
	c0.835,65.549-24.182,125.569-57.138,133.415c-57.119,13.599-88.841,56.247-148.626,58.338
	c-68.097,2.382-96.978-20.632-138.126-68.098C104.882,296.51,100.667,254.114,119.786,207.005z">
<path fill="#848383" stroke="#000000" stroke-width="2" stroke-miterlimit="10" d="M194,169.66
	c-88.349,41.781,4.181,159.509,43.115,88.727c10.708-19.468,25.19-63.11,7.122-79.091C231.455,167.99,225,155,194,169.66z">
<ellipse fill="#848383" stroke="#000000" stroke-width="2" stroke-miterlimit="10" cx="274.953" cy="158.995" rx="11.047" ry="8.995">
<ellipse fill="#848383" stroke="#000000" stroke-width="2" stroke-miterlimit="10" cx="344" cy="183.5" rx="10" ry="9.5">
<ellipse fill="#848383" stroke="#000000" stroke-width="2" stroke-miterlimit="10" cx="417" cy="178.75" rx="10" ry="4.75">
<ellipse fill="#848383" stroke="#000000" stroke-width="2" stroke-miterlimit="10" cx="427" cy="121.5" rx="10" ry="6.5">
<ellipse fill="#848383" stroke="#000000" stroke-width="2" stroke-miterlimit="10" cx="327" cy="113.25" rx="7" ry="8.25">
<ellipse fill="#848383" stroke="#000000" stroke-width="2" stroke-miterlimit="10" cx="278.746" cy="61.5" rx="14.746" ry="5.5">
<ellipse fill="#848383" stroke="#000000" stroke-width="2" stroke-miterlimit="10" cx="200.5" cy="133.5" rx="11.5" ry="5.5">
<ellipse fill="#848383" stroke="#000000" stroke-width="2" stroke-miterlimit="10" cx="151.9" cy="320.5" rx="6.9" ry="11.5">
<ellipse fill="#848383" stroke="#000000" stroke-width="2" stroke-miterlimit="10" cx="237.866" cy="305" rx="12.866" ry="4">
<ellipse transform="matrix(0.6106 0.792 -0.792 0.6106 371.4288 -145.343)" fill="#848383" stroke="#000000" stroke-width="2" stroke-miterlimit="10" cx="333.5" cy="305" rx="6.5" ry="13.994">
<ellipse fill="#848383" stroke="#000000" stroke-width="2" stroke-miterlimit="10" cx="293.5" cy="235.5" rx="7.5" ry="11.5">
<ellipse fill="#848383" stroke="#000000" stroke-width="2" stroke-miterlimit="10" cx="429.5" cy="267.506" rx="7.5" ry="13.506">
<ellipse fill="#848383" stroke="#000000" stroke-width="2" stroke-miterlimit="10" cx="400.5" cy="326.25" rx="16.5" ry="5.75">
<ellipse fill="#848383" stroke="#000000" stroke-width="2" stroke-miterlimit="10" cx="278.75" cy="377.25" rx="14.75" ry="7.25">
</svg>
