<?xml version="1.0" encoding="utf-8"?>
<!-- Generator: Adobe Illustrator 16.0.4, SVG Export Plug-In . SVG Version: 6.00 Build 0)  -->
<!DOCTYPE svg PUBLIC "-//W3C//DTD SVG 1.1//EN" "http://www.w3.org/Graphics/SVG/1.1/DTD/svg11.dtd">
<svg version="1.1" xmlns="http://www.w3.org/2000/svg" xmlns:xlink="http://www.w3.org/1999/xlink" x="0px" y="0px" width="515px"
	 height="572px" viewBox="0 0 515 572" enable-background="new 0 0 515 572" xml:space="preserve">
<g id="Calque_2">
	<line fill="none" stroke="#000000" stroke-width="3" stroke-miterlimit="10" x1="62" y1="517" x2="62" y2="498">
	<line fill="none" stroke="#000000" stroke-width="3" stroke-miterlimit="10" x1="141" y1="516" x2="141" y2="497">
	<path fill="none" stroke="#000000" stroke-width="3" stroke-miterlimit="10" d="M62,507h79H62z">
	<text transform="matrix(1 0 0 1 76 531)" font-size="18">0,25 µm</text>
	<path fill="none" stroke="#000000" stroke-width="4" stroke-miterlimit="10" d="M302,42
		c-93.997,53.125-117.828,173.305-135.345,271c-8.772,48.922,0.286,109.885,24.345,157c24,47,74,61,119,47
		c97.801-30.427,168.063-140.698,154.383-240.308c-8.229-59.915-37.251-117.172-61.857-171.774C386.096,68.46,358,20,302,42z">
	<path fill="none" stroke="#000000" stroke-width="4" stroke-miterlimit="10" d="M306,23C182,83,151,206,142.24,314.318
		c-4.395,54.337,0.337,120.225,28.688,171.772c28.281,51.422,87.157,65.663,140.228,51.422C423,507.5,510,396,489,279.328
		C477.262,214.11,455.996,145.74,427,86C407.64,46.113,371.99-1.07,306,23z">
</g>
<g id="Calque_3">
	<path fill="none" stroke="#000000" stroke-width="2" stroke-miterlimit="10" d="M273,488c33.555-7.986,14.48-62.338,27.772-80.695
		c23.207-32.053-84.404-71.892-50.289-92.305c14.971-8.958,106.842-24.313,91.191-52.244c-4.973-8.873-59.415,2.51-77.117-5.63
		c-38.159-17.547,12.212-22.594,22.817-30.13c8.438-5.995,75.405-29.047,38.181-36.719c-122.463-25.238,18.104-35.456,15.758-44.31
		c-2.165-8.17-66.875-9.466-30.83-29.358c5.972-3.296,27.308-8.097,29.663-15.923c3.916-13.005-27.213-26.548-36.078-25.67
		c-50.058,4.958,35.919,28.82,37.696,43.006c1.551,12.377-28.492,22.042-40.455,29.204c-25.104,15.03,47.278,55.921,47.042,73.163
		c-0.31,22.685-51.974,21.646-65.458,31.614c-38.279,28.298,37.836,28.282,49.458,30.165C384.217,290.569,284.903,321.725,286,343
		c1.01,19.602,60.421,17.934,52.824,28.832c-13.199,18.936-48.169,9.738-59.666,32.92c12.146,12.314,35.304-0.616,45.978,13.283
		c-8.801,9.05-58.279,12.225-28.113,31.762C322.246,466.133,266.948,477.636,259,480">
	<path fill="none" stroke="#000000" stroke-width="2" stroke-miterlimit="10" d="M328,474
		c-24.462,14.745-18.686-16.683,5.594-27.487c43.219-19.231-5.556-44.173-10.462-61.342c33.35-10.091,50.251-29.358,13.899-48.733
		c-1.805-0.962,61.697-90.46,20.476-77.778c-20.84,6.412-43.487,59.183-34.359,78.406c16.809,35.396,89.258,11.556,45.878-29.877
		c-14.622-13.966-72.139,11.552-72.911-8.786c-0.982-25.898,83.857-45.954,33.469-75.735c-22.687-13.408-35.89,5.477-40.883-26.201
		c20.577-3.415,47.197-1.516,64.552-15.032c21.531-16.769-11.332-26.062-23.438-29.821c-28.644-8.894-34.22,25.386-59.737,24.752
		C264.973,132.526,366.391,127.519,310,89">
	<path fill="none" stroke="#000000" stroke-width="2" stroke-miterlimit="10" d="M239,477
		c12.491-20.623,33.877-18.488,54.749-21.896c27.43-4.48,42.569-40.702,7.023-47.799c-21.982-4.389-41.069,20.383-62.744,22.394
		c-9.962,0.925-18.162-12.029-13.411-20.893c4.642-8.661,17.877-10.437,26.217-13.181c16.926-5.571,60.836-4.82,69.92-22.303
		c12.709-24.46-49.643-2.001-55.682-2.908c-36.177-5.436-7.588-52.974,14.086-58.552c21.3-5.481,44.845-2.015,65.001-12.282
		c40.358-20.559-34.075-42.453-45.964-47.946c-14.594-6.743-16.465-21.417-0.016-28.555c15.874-6.889,35.86-6.393,52.91-6.168
		c25.667,0.338,24.284-25.209,0.247-26.634c-15.723-0.933-54.208,14.03-60.475-8.709c-6.944-25.199-1.26-43.299,23.282-53.123
		C343.035,116.88,330.117,99.856,319,78">
</g>
</svg>
