<?xml version="1.0" encoding="UTF-8" standalone="no"?>
<!-- Created with Inkscape (http://www.inkscape.org/) -->

<svg
   width="143.73215mm"
   height="176.88602mm"
   viewBox="0 0 143.73215 176.88602"
   version="1.1"
   id="svg1"
   xml:space="preserve"
   sodipodi:docname="paxy.svg"
   inkscape:version="1.4.3 (1:1.4.3+202512261035+0d15f75042)"
   xmlns:inkscape="http://www.inkscape.org/namespaces/inkscape"
   xmlns:sodipodi="http://sodipodi.sourceforge.net/DTD/sodipodi-0.dtd"
   xmlns="http://www.w3.org/2000/svg"
   xmlns:svg="http://www.w3.org/2000/svg"><sodipodi:namedview
     id="namedview1"
     pagecolor="#ffffff"
     bordercolor="#000000"
     borderopacity="0.25"
     inkscape:showpageshadow="2"
     inkscape:pageopacity="0.0"
     inkscape:pagecheckerboard="0"
     inkscape:deskcolor="#d1d1d1"
     inkscape:document-units="mm"
     inkscape:zoom="0.54677766"
     inkscape:cx="5.4866909"
     inkscape:cy="480.9999"
     inkscape:window-width="1920"
     inkscape:window-height="1048"
     inkscape:window-x="0"
     inkscape:window-y="0"
     inkscape:window-maximized="1"
     inkscape:current-layer="layer1" /><defs
     id="defs1" /><g
     inkscape:label="Calque 1"
     inkscape:groupmode="layer"
     id="layer1"
     transform="translate(-33.133926,-60.056992)"><path
       style="fill:#105bb8;fill-opacity:1"
       d="m 98.631919,231.66693 c -0.305491,-0.025 -1.277508,-0.10486 -2.160038,-0.17744 -10.282301,-0.84565 -19.367213,-3.33936 -28.074126,-7.70604 -8.795726,-4.41122 -15.945841,-10.58395 -20.949516,-18.0858 -2.945921,-4.41673 -4.888809,-9.07674 -6.02197,-14.44367 -1.276777,-6.04714 -0.983803,-11.56672 1.005387,-18.94132 1.363493,-5.05492 3.78084,-9.79926 7.454103,-14.62957 4.851021,-6.37906 10.784397,-11.5699 19.616503,-17.16157 1.527456,-0.96704 3.527034,-2.23213 4.443507,-2.81131 10.744975,-6.79044 15.755375,-11.15789 19.979067,-17.41528 2.047036,-3.03268 3.60227,-5.94755 5.505096,-10.31782 3.855518,-8.85508 5.293138,-11.766149 7.277178,-14.735729 1.20293,-1.80046 3.16448,-4.19629 4.40962,-5.38589 l 1.01853,-0.9731 0.15559,0.84303 c 0.31926,1.72982 1.18304,3.92282 2.04288,5.18656 0.496,0.72898 1.98253,2.54287 2.0387,2.48766 0.0155,-0.0152 -0.15858,-0.50348 -0.38686,-1.08496 -0.72311,-1.84193 -1.73336,-5.34113 -2.11898,-7.33948 -0.53871,-2.79171 -0.68877,-6.68196 -0.36353,-9.42453 0.59295,-5.00003 2.74665,-9.67233 6.02477,-13.07029 1.04831,-1.08663 2.05289,-1.37508 3.11137,-0.89338 1.75178,0.79721 5.15219,4.43601 7.12354,7.62293 1.59691,2.5816 3.2683,6.63557 4.29382,10.41471 l 0.35169,1.29603 0.009,-0.74059 c 0.009,-0.75452 -0.17768,-3.12066 -0.30588,-3.86939 l -0.0708,-0.41333 0.53246,0.0864 c 2.54496,0.41285 4.41595,0.91862 6.64228,1.79554 5.04344,1.98654 8.34949,4.47931 10.79263,8.13766 0.76894,1.15141 2.28327,4.07428 2.91106,5.61877 1.71382,4.21628 4.88434,7.130959 11.19039,10.287369 1.09873,0.54996 2.20399,1.18106 2.45615,1.40245 0.86933,0.76329 0.98656,1.55918 0.47256,3.20807 -0.83945,2.69292 -3.09172,5.66121 -5.45004,7.18266 -2.72302,1.75673 -5.02852,2.51965 -9.90625,3.27807 -5.64869,0.8783 -6.96204,1.29343 -9.04552,2.85916 -1.46804,1.10322 -2.64664,3.19702 -3.05256,5.42288 -0.23241,1.27441 -0.31601,4.04839 -0.20628,6.84463 0.21293,5.42629 -0.0404,9.47881 -0.77548,12.40755 -1.48703,5.92427 -3.82348,10.61868 -8.32275,16.72211 -2.1875,2.96743 -3.3612,4.78027 -4.1388,6.3926 -1.70513,3.53555 -2.48046,6.47341 -2.84032,10.7625 -0.0626,0.74578 -0.09,1.37975 -0.0609,1.40883 0.0733,0.0733 2.59954,-0.85297 4.72054,-1.73079 6.09537,-2.52268 11.73175,-6.33103 14.76854,-9.97872 2.47604,-2.97412 3.86766,-6.00249 4.37459,-9.51976 0.18467,-1.2813 0.29582,-1.69846 0.55824,-2.09499 0.83481,-1.26148 2.37704,-1.43162 3.69184,-0.40727 0.84442,0.65788 3.27821,3.34468 4.51326,4.98245 5.50788,7.30383 7.87534,16.45784 6.48022,25.05644 -0.46499,2.86595 -1.57226,6.65314 -2.63439,9.01045 -2.502,5.55297 -5.40113,9.73382 -9.80907,14.14575 -5.13357,5.13821 -11.17512,9.16443 -18.46381,12.30469 -6.39173,2.75382 -12.46769,4.46816 -19.31691,5.45029 -4.03343,0.57836 -5.86967,0.70945 -10.4299,0.74459 -2.47787,0.0191 -4.755169,0.0142 -5.060661,-0.0108 z m 11.602491,-5.2823 c 8.71211,-0.88754 17.06419,-3.22567 24.069,-6.73799 7.50232,-3.76178 13.03859,-8.07465 17.50915,-13.63999 4.76776,-5.93533 7.36946,-12.21097 7.91968,-19.10331 0.2504,-3.1366 -0.35155,-7.87001 -1.37314,-10.79759 -0.45752,-1.31112 -1.98363,-4.50291 -2.84445,-5.94906 -0.62921,-1.05705 -2.18645,-3.2163 -2.31957,-3.2163 -0.0389,0 -0.20404,0.37492 -0.36703,0.83316 -0.80449,2.26187 -2.5385,5.19026 -4.41759,7.46039 -3.17566,3.83653 -9.12533,8.04393 -15.03279,10.63067 -1.68724,0.7388 -6.89846,2.68317 -8.33157,3.1086 -0.16972,0.0504 -2.05821,0.71943 -4.19664,1.48676 -7.11047,2.55145 -10.14372,3.77661 -17.66955,7.13691 -7.378793,3.29465 -12.391122,4.45726 -18.187088,6.11703 -3.855748,1.10416 -7.81015,3.4323 -1.296277,1.91309 6.383628,-1.48883 12.562928,-3.06783 22.155825,-7.39708 5.44643,-2.45796 8.4695,-3.67172 14.81169,-5.94687 10.1613,-3.64519 11.0683,-3.86181 14.62654,-3.49312 2.46544,0.25546 4.39572,0.78203 6.35844,1.73457 3.51135,1.70411 5.7843,5.14451 6.25819,9.47255 0.34661,3.16561 -0.7162,7.665 -2.38597,10.10092 -0.40109,0.58514 -2.58995,2.38081 -4.67627,3.83627 -7.01546,4.89411 -16.17482,8.49197 -25.85875,10.1575 -5.66074,0.97358 -12.351,1.21169 -18.761474,0.66771 -11.64031,-0.9877 -23.575115,-5.13242 -31.882574,-11.07211 -5.06498,-3.62138 -8.525929,-7.13139 -11.407478,-11.56918 -1.832785,-2.82263 -2.892144,-4.92727 -4.095261,-8.13613 -0.316041,-0.84292 -0.762685,-1.84271 -0.99254,-2.22175 -0.557802,-0.91985 -1.385138,-2.59013 -1.742097,-3.51708 -0.400836,-1.04088 -0.370999,-0.59988 0.122588,1.81185 0.542976,2.65306 0.915841,3.93979 1.760891,6.07672 3.670976,9.28299 11.084922,17.09643 21.452012,22.60791 6.566733,3.4911 14.576949,6.05448 22.464397,7.18895 1.47001,0.21143 4.151352,0.48776 6.541829,0.67418 1.566717,0.12218 9.974197,-0.0334 11.787637,-0.21818 z m 21.71967,-69.66754 c 2.51926,-4.41287 3.83012,-8.08622 4.53109,-12.69715 0.16091,-1.05846 0.19263,-1.99596 0.1537,-4.54289 -0.10988,-7.18962 -0.0598,-9.63689 0.22857,-11.17048 0.42901,-2.28151 0.98746,-3.70347 2.1814,-5.55438 1.67624,-2.5986 4.58733,-4.6013 7.90169,-5.43601 1.72418,-0.43422 4.74219,-1.01271 7.09179,-1.35933 2.00004,-0.29506 3.2848,-0.60125 4.76209,-1.13493 l 1.11088,-0.40131 -2.65377,-0.0767 c -2.9558,-0.0855 -4.21462,-0.23461 -8.70186,-1.03107 -3.71733,-0.6598 -4.46923,-0.76664 -6.5289,-0.92774 -4.52675,-0.35406 -8.26932,0.007 -11.6171,1.12005 -3.48307,1.15826 -5.7873,2.7157 -7.6227,5.15221 -1.43125,1.9 -2.392,4.01682 -2.74818,6.05506 -0.63749,3.64809 0.40559,7.1211 4.73097,15.75211 3.40447,6.79339 4.41617,10.43302 4.74303,17.06326 l 0.14751,2.99215 0.56968,-0.89383 c 0.31332,-0.49161 1.08737,-1.80065 1.72011,-2.90899 z m 12.08829,-75.360949 c -2.80937,-1.38744 -6.43196,-2.54473 -9.16033,-2.92641 l -1.05265,-0.14726 -0.33147,-0.93926 c -0.18231,-0.5166 -0.75168,-1.8159 -1.26528,-2.88735 l -0.9338,-1.94808 0.97504,-1.44626 c 1.09799,-1.62864 2.6802,-3.26984 4.22365,-4.38113 1.61209,-1.16071 2.06091,-1.36979 2.94059,-1.36979 1.08505,0 1.54594,0.33582 2.56807,1.87119 1.92857,2.89694 3.22778,6.53358 3.64743,10.2096 0.14668,1.28481 0.17323,4.75673 0.0363,4.74238 -0.0509,-0.005 -0.7923,-0.35527 -1.64752,-0.77763 z"
       id="path1"
       sodipodi:nodetypes="csssssssssssscssssssssssccscsssssssssssscssssssssssssssssccssssssssssssssssssssssscssssssssssssssssssssccsscsssscssssscsscssssscss" /></g></svg>
