<?xml version="1.0" encoding="UTF-8" standalone="no"?>
<!-- Created with Inkscape (http://www.inkscape.org/) -->

<svg
   width="150.36397mm"
   height="65.372566mm"
   viewBox="0 0 150.36397 65.372566"
   version="1.1"
   id="svg1"
   xml:space="preserve"
   inkscape:version="1.4.3 (1:1.4.3+202512261035+0d15f75042)"
   sodipodi:docname="pax.svg"
   inkscape:export-filename="../../pax.png"
   inkscape:export-xdpi="96"
   inkscape:export-ydpi="96"
   xmlns:inkscape="http://www.inkscape.org/namespaces/inkscape"
   xmlns:sodipodi="http://sodipodi.sourceforge.net/DTD/sodipodi-0.dtd"
   xmlns:xlink="http://www.w3.org/1999/xlink"
   xmlns="http://www.w3.org/2000/svg"
   xmlns:svg="http://www.w3.org/2000/svg"><sodipodi:namedview
     id="namedview1"
     pagecolor="#ffffff"
     bordercolor="#000000"
     borderopacity="0.25"
     inkscape:showpageshadow="2"
     inkscape:pageopacity="0.0"
     inkscape:pagecheckerboard="0"
     inkscape:deskcolor="#d1d1d1"
     inkscape:document-units="mm"
     inkscape:zoom="1.4942735"
     inkscape:cx="301.81892"
     inkscape:cy="155.2594"
     inkscape:window-width="1920"
     inkscape:window-height="1048"
     inkscape:window-x="0"
     inkscape:window-y="0"
     inkscape:window-maximized="1"
     inkscape:current-layer="layer1" /><defs
     id="defs1"><linearGradient
       id="linearGradient5"
       inkscape:collect="always"><stop
         style="stop-color:#105bb8;stop-opacity:1;"
         offset="0"
         id="stop5" /><stop
         style="stop-color:#083461;stop-opacity:1;"
         offset="1"
         id="stop6" /></linearGradient><linearGradient
       inkscape:collect="always"
       xlink:href="#linearGradient5"
       id="linearGradient6"
       x1="121.34404"
       y1="145.8551"
       x2="171.46133"
       y2="145.8551"
       gradientUnits="userSpaceOnUse" /></defs><g
     inkscape:label="Calque 1"
     inkscape:groupmode="layer"
     id="layer1"
     transform="translate(-21.097366,-113.15673)"><path
       style="fill:#105bb8;fill-opacity:1"
       d="m 21.097366,152.84023 v -25.68659 l 13.362766,0.0682 c 12.852853,0.0656 13.437212,0.0827 15.313712,0.44911 7.192843,1.40445 12.054938,4.799 14.692252,10.25765 2.456432,5.08426 2.388633,11.47531 -0.177326,16.7155 -2.200301,4.49344 -6.397994,7.82372 -11.852939,9.40364 -3.070195,0.88922 -4.598112,1.02776 -12.280094,1.11346 l -7.141413,0.0797 v 6.64299 6.64298 h -5.958478 -5.95848 z m 26.342428,2.24001 c 1.897211,-0.52471 3.265537,-1.30141 4.41414,-2.5056 2.003875,-2.10086 2.789944,-5.30487 2.102849,-8.5712 -0.711838,-3.38396 -3.01204,-5.71761 -6.659634,-6.75648 -0.880065,-0.25065 -2.13008,-0.31292 -7.66716,-0.38192 l -6.615665,-0.0824 v 9.40641 9.40642 l 6.52804,-0.0682 c 6.028804,-0.063 6.632765,-0.0972 7.89743,-0.44697 z m 12.787562,23.22751 c 0.04778,-0.12048 1.642429,-3.72843 3.54366,-8.01765 6.258413,-14.11915 7.935758,-17.9205 13.068585,-29.61715 0.571015,-1.30122 2.133945,-4.85002 3.473178,-7.88622 l 2.434968,-5.52035 5.809883,-0.0462 5.809882,-0.0462 0.274741,0.65955 c 1.244142,2.98675 21.092557,47.75696 21.249957,47.93152 0.0644,0.0714 0.82683,-0.79606 1.69427,-1.92775 0.86745,-1.13169 3.46424,-4.50234 5.77065,-7.49034 2.30641,-2.98801 5.14224,-6.66305 6.30185,-8.16677 1.1596,-1.50373 2.77308,-3.59357 3.5855,-4.64411 3.00452,-3.88514 16.10148,-20.75104 18.15392,-23.37812 1.16721,-1.494 2.33786,-3.00482 2.60144,-3.35738 l 0.47924,-0.64102 -3.38202,-2.00585 c -1.86011,-1.10322 -3.57207,-2.10579 -3.80435,-2.22795 -0.55524,-0.29199 -0.49351,-0.32407 2.74105,-1.4245 1.42355,-0.48431 3.45575,-1.18485 4.51601,-1.55675 1.06026,-0.37191 4.4119,-1.54458 7.4481,-2.60594 3.03619,-1.06136 6.40755,-2.24809 7.49191,-2.63718 1.08436,-0.38909 1.97156,-0.62328 1.97156,-0.52043 0,0.10285 -0.43777,3.82675 -0.97281,8.27532 -0.53505,4.44857 -1.20503,10.05986 -1.48885,12.46954 -0.28381,2.40968 -0.53609,4.49203 -0.56062,4.62744 -0.0245,0.13541 -1.4192,-1.18736 -3.09928,-2.93948 -1.68009,-1.75213 -3.11128,-3.16415 -3.18043,-3.13782 -0.19993,0.0761 -19.41756,25.184 -27.63613,36.10668 l -7.48418,9.94666 -11.38999,-0.0451 -11.38998,-0.0451 -0.76587,-1.84012 c -0.42123,-1.01207 -1.22378,-2.94419 -1.78345,-4.29361 l -1.01757,-2.45349 -12.255837,-0.045 -12.255834,-0.045 -0.970264,2.41085 c -0.533644,1.32597 -1.342621,3.29806 -1.797727,4.38241 l -0.827463,1.97156 h -6.222288 c -4.907331,0 -6.203928,-0.0463 -6.135411,-0.21907 z m 36.701559,-17.70018 c -0.04891,-0.12049 -0.560385,-1.32313 -1.136601,-2.67255 -1.823597,-4.27062 -6.788462,-16.26501 -7.086488,-17.11993 -0.2922,-0.83821 0.330104,-2.1968 -5.647688,12.32984 -1.692338,4.11255 -3.076978,7.52334 -3.076978,7.57953 0,0.0562 3.833255,0.10217 8.518345,0.10217 6.745275,0 8.499833,-0.0456 8.42941,-0.21906 z m 49.559385,10.9876 c -2.60245,-3.80346 -4.833,-7.06214 -4.95677,-7.24151 -0.1986,-0.28784 -0.0854,-0.50957 0.96388,-1.88836 0.65389,-0.85923 2.40135,-3.15668 3.88324,-5.10544 1.48188,-1.94876 2.75255,-3.5432 2.8237,-3.5432 0.0711,0 2.02082,2.70103 4.3326,6.00229 2.31179,3.30126 6.18688,8.82725 8.61132,12.27998 2.42445,3.45273 4.40808,6.31149 4.40808,6.35279 0,0.0413 -3.45022,0.0714 -7.66716,0.067 l -7.66716,-0.008 z M 128.71065,148.417 c -1.29564,-1.80135 -5.25846,-7.26977 -8.80628,-12.15203 -3.54782,-4.88227 -6.45058,-8.92395 -6.45058,-8.98153 0,-0.0576 3.46563,-0.10469 7.7014,-0.10469 h 7.70139 l 1.55436,2.14681 c 0.8549,1.18074 3.15727,4.38732 5.11639,7.12573 3.26452,4.56307 3.54311,5.00952 3.33537,5.34511 -0.2084,0.33666 -3.10434,4.10524 -6.27418,8.16477 -0.715,0.91568 -1.34999,1.67975 -1.41108,1.69794 -0.0611,0.0182 -1.17115,-1.44076 -2.46679,-3.24211 z"
       id="path1" /><path
       style="fill:url(#linearGradient6);stroke:none;stroke-width:0.2;stroke-linecap:round;stroke-linejoin:round"
       d="m 171.46134,113.18096 -50.1173,65.32579 5.695,0.0225 35.12031,-46.05334 6.27971,6.0773 z"
       id="path2" /></g></svg>
